<svg xmlns="http://www.w3.org/2000/svg" width="768" height="288" viewBox="0 65 960 360" role="img" aria-labelledby="title">
<title id="title">Y+, Y-, Z, A</title>
<defs>
  <path id="arrow" d="M-14-6L0 0L-14 6Z" fill="#343a3e"/>
  <path id="dimension" d="M-8-4L0 0L-8 4Z" fill="#343a3e"/>
  <path id="blue" d="M-12-5L0 0L-12 5Z" fill="#246c94"/>
  <g id="chuck" fill="#e5e8ea" stroke="#d6dbde" stroke-width="2"><circle r="111"/><path d="M-24-108H24V-52H-24ZM-24 108H24V52H-24ZM-108-24V24H-52V-24ZM108-24V24H52V-24Z"/></g>
  <g id="start" fill="#fff" stroke="#555d62" stroke-width="2"><circle r="8"/><path d="M-13 0H13M0-13V13"/></g>
</defs>
<rect y="65" width="960" height="360" fill="#f5f6f7"/>
<g font-family="DejaVu Sans, sans-serif" fill="#25292c" font-size="24">
  <text text-anchor="middle" x="288" y="97">Y+</text><text text-anchor="middle" x="673" y="97">Y-</text>
  <use href="#chuck" x="288" y="240"/><use href="#chuck" x="673" y="240"/>
  <path d="M284 112L249 347L284 352L319 117Z" fill="#b9bdc0" stroke="#6a7074" stroke-width="2"/>
  <path d="M267 112H302V350H267Z" fill="none" stroke="#6a7074" stroke-width="1.5" stroke-dasharray="6 5"/>
  <path d="M145 206V275" stroke="#555d62" stroke-width="5"/>
  <use href="#start" x="145" y="289"/><use href="#start" x="145" y="165"/>
  <path d="M161 165H270M161 289H252" stroke="#343a3e" stroke-width="2.5"/>
  <use href="#arrow" transform="translate(270 165)"/><use href="#arrow" transform="translate(252 289)"/>
  <circle cx="276" cy="165" r="5" fill="#008544"/><circle cx="258" cy="289" r="5" fill="#008544"/>

  <path d="M252 310H121V179" fill="none" stroke="#246c94" stroke-width="2" stroke-dasharray="5 4"/>
  <use href="#blue" transform="translate(121 310) rotate(180)"/><use href="#blue" transform="translate(121 179) rotate(-90)"/>
  <path d="M94 165V289" stroke="#343a3e" stroke-width="1.5"/>
  <use href="#dimension" transform="translate(94 165) rotate(-90)"/><use href="#dimension" transform="translate(94 289) rotate(90)"/>
  <text x="54" y="237">Z</text>
  <path d="M145 375H321" stroke="#343a3e" stroke-width="1.5"/>
  <use href="#dimension" transform="translate(145 375) rotate(180)"/><use href="#dimension" transform="translate(321 375)"/>
  <text text-anchor="middle" x="233" y="407">Y</text>
  <path d="M267 214V240M254 227H280" stroke="#008544" stroke-width="2.5"/><circle cx="267" cy="227" r="5" fill="#008544"/>
  <text x="326" y="247" fill="#008544">A0/Y0</text>
  <path d="M676 112L711 347L676 352L641 117Z" fill="#b9bdc0" stroke="#6a7074" stroke-width="2"/>
  <path d="M658 112H693V350H658Z" fill="none" stroke="#6a7074" stroke-width="1.5" stroke-dasharray="6 5"/>
  <path d="M815 206V275" stroke="#555d62" stroke-width="5"/>
  <use href="#start" x="815" y="289"/><use href="#start" x="815" y="165"/>
  <path d="M799 165H690M799 289H708" stroke="#343a3e" stroke-width="2.5"/>
  <use href="#arrow" transform="translate(690 165) rotate(180)"/><use href="#arrow" transform="translate(708 289) rotate(180)"/>
  <circle cx="684" cy="165" r="5" fill="#008544"/><circle cx="702" cy="289" r="5" fill="#008544"/>

  <path d="M708 310H839V179" fill="none" stroke="#246c94" stroke-width="2" stroke-dasharray="5 4"/>
  <use href="#blue" transform="translate(839 310)"/><use href="#blue" transform="translate(839 179) rotate(-90)"/>
  <path d="M866 165V289" stroke="#343a3e" stroke-width="1.5"/>
  <use href="#dimension" transform="translate(866 165) rotate(-90)"/><use href="#dimension" transform="translate(866 289) rotate(90)"/>
  <text x="879" y="237">Z</text>
  <path d="M639 375H815" stroke="#343a3e" stroke-width="1.5"/>
  <use href="#dimension" transform="translate(639 375) rotate(180)"/><use href="#dimension" transform="translate(815 375)"/>
  <text text-anchor="middle" x="727" y="407">Y</text>
  <path d="M693 214V240M680 227H706" stroke="#008544" stroke-width="2.5"/><circle cx="693" cy="227" r="5" fill="#008544"/>
  <text x="535" y="247" fill="#008544">A0/Y0</text>
  <path d="M876 125H912M876 125V101" fill="none" stroke="#343a3e" stroke-width="1.5"/>
  <use href="#dimension" transform="translate(912 125)"/><use href="#dimension" transform="translate(876 101) rotate(-90)"/>
  <text x="916" y="133">Y+</text><text x="841" y="94">Z+</text>
</g>
</svg>
